<?xml version="1.0" encoding="UTF-8"?>
<svg id="_图层_1" data-name="图层_1" xmlns="http://www.w3.org/2000/svg" version="1.1" xmlns:xlink="http://www.w3.org/1999/xlink" viewBox="0 0 1024 1024">
  <!-- Generator: Adobe Illustrator 29.6.0, SVG Export Plug-In . SVG Version: 2.1.1 Build 207)  -->
  <defs>
    <style>
      .st0 {
        fill: #333e78;
      }

      .st1 {
        fill: #000004;
      }

      .st2 {
        fill: #94bdeb;
      }

      .st3 {
        fill: #fefefd;
      }

      .st4 {
        fill: #474c59;
      }

      .st5 {
        fill: #0c0a33;
      }

      .st6 {
        fill: url(#_未命名的渐变);
      }

      .st7 {
        fill: #ee59a7;
      }

      .st8 {
        fill: #646496;
      }

      .st9 {
        fill: #350539;
      }
    </style>
    <linearGradient id="_未命名的渐变" data-name="未命名的渐变" x1="706.67" y1="516.93" x2="708.18" y2="593.81" gradientTransform="translate(0 1026) scale(1 -1)" gradientUnits="userSpaceOnUse">
      <stop offset="0" stop-color="#050110"/>
      <stop offset="1" stop-color="#150322"/>
    </linearGradient>
  </defs>
  <path class="st8" d="M0,0h1024v1024H0V0Z"/>
  <g>
    <path class="st5" d="M190.19,192.95l458.05-.18h145.18s43.76-.05,43.76-.05c7.67,0,18.29-.34,25.7.56,15.2,1.85,30.83,10.61,41.68,21.28,13.81,13.46,21.63,31.9,21.72,51.18l-.02,351.42-.02,96.79.05,27.79c0,8.83.33,16.59-1.1,25.37-2.82,17.22-10.35,30.27-22.6,42.54-11.7,11.54-26.97,18.78-43.31,20.52-7.89.84-18.94.54-27.11.53l-464.53-.03-139.05-.07-40.33.04c-27.12.03-46.33-.07-67.28-20.67-15.1-14.68-23.79-34.74-24.17-55.79l-.12-357.3-.12-92.45v-26.62c.03-6.76-.17-13.91.86-20.57,2.6-16.14,10.14-31.08,21.6-42.74,22.12-22.34,42.76-21.33,71.18-21.54Z"/>
    <path class="st7" d="M695.05,207.97l150.38-.1c10.85-.08,19.71,0,29.78,4.49,24.24,10.79,36.26,31.6,36.37,57.41v345.92s.09,98.07.09,98.07l.06,28.96c0,5.37.04,10.78-.25,16.04-1.23,22.48-15.81,41.72-35.73,51.49-13.79,6.76-27.69,5.44-42.54,5.45l-37.25.03c-4-11.15-7.63-25.78-10.99-37.33l-18.2-61.17c-7.31-24.39-10.41-46.46-33.69-60.43-21.17-12.7-40.13-9.73-63.4-9.73l-75.87-.03-264.85-.15c-14.7-.12-24.1.17-37.22,7.82-9.64,5.54-17.52,13.68-22.74,23.5-5.38,9.97-9.82,29.31-13.09,40.89-8.87,32.14-17.51,64.35-25.89,96.63-19.71-.19-39.31.21-59.17.02-28.42-.27-53.18-22.99-57.76-50.73-.75-4.52-.61-10.02-.66-14.65l-.38-337.33.04-103.02-.15-29.47c-.04-7.11-.32-14.31.67-21.43,2.42-16.35,11.37-30.11,24.39-40.02,14.92-11.36,27.63-10.96,45.22-10.94l29.27.02,106.87-.03,376.7-.17Z"/>
    <path class="st0" d="M369.18,326.48l312.61-.15,90.93.17,27.47-.05c4.66-.01,9.33.05,13.89.13,17.48.33,32.2,10.38,39.75,26.06,5.41,11.23,4.93,21.76,5.03,33.9l.12,26.36v102.14s0,30.5,0,30.5c-.02,11.02.54,22-3.29,32.53-5.56,15.28-19.9,27.68-35.82,31.01-7.03,1.47-16.05,1-23.32.98l-28.61-.06-110.7-.05-304.28-.23c-33.28.23-66.56.22-99.84-.03l-28.56-.02c-18.39,0-30.9.4-45.1-13.56-7.03-6.86-11.73-15.75-13.44-25.42-.73-4.1-.49-14.79-.49-19.51l.03-36.21c.51-45.07.51-90.15,0-135.22-.1-15.57,1.49-27.22,12.78-38.9,14.6-15.1,29.32-14.24,48.58-14.27l29.32-.03,112.95-.1Z"/>
    <path class="st2" d="M210.05,340.2c44.91-.74,91.62.08,136.7.11l239.32-.11,154.11-.14,46.08.08c13,0,31.67-2.09,42.79,4.92,14.51,9.14,17.43,22.5,16.37,38.58-.37,5.56-.04,13.64-.02,19.36v83.9s-.02,49.97-.02,49.97c.03,7.63.62,20.53-.05,27.63-.48,5.57-2.36,10.93-5.46,15.58-5.81,8.74-14,13.61-24.12,15.65-.43.05-.86.1-1.28.14-7.18.7-20.06.29-27.59.26l-49.14-.03-180.07.03-238.68.06-70.62.03c-12.6.02-25.21.19-37.81-.19-16.12-.49-30.48-15.26-31.24-31.26-.64-13.64-.34-27.57-.38-41.27v-84.02s.06-46.94.06-46.94c-.02-14.04-2.56-28.94,7.59-40.32,6.69-7.5,13.46-11.17,23.47-12Z"/>
    <path class="st0" d="M702.9,375.13c52.55-3.11,97.64,37.01,100.67,89.56,3.03,52.55-37.17,97.58-89.73,100.52-52.43,2.93-97.34-37.15-100.36-89.58-3.02-52.43,36.99-97.4,89.41-100.5Z"/>
    <path class="st3" d="M706.01,388.41c45.14-1.26,82.76,34.28,84.06,79.42,1.3,45.14-34.22,82.79-79.36,84.12-45.18,1.33-82.88-34.23-84.18-79.42s34.3-82.86,79.48-84.12Z"/>
    <path class="st9" d="M706.01,406.05c35.15-1.1,64.59,26.39,65.88,61.53,1.3,35.14-26.03,64.73-61.17,66.22-35.41,1.5-65.28-26.09-66.59-61.51-1.31-35.42,26.45-65.14,61.87-66.25Z"/>
    <path class="st6" d="M702.73,432.54c21.07-2.59,40.25,12.36,42.89,33.42,2.64,21.06-12.27,40.28-33.32,42.97-21.12,2.7-40.42-12.27-43.07-33.4s12.36-40.39,33.5-42.99Z"/>
    <path class="st3" d="M706.22,435.36c5.64.1,19.17,2.1,22,7.41-4.54,3.55-4.39,10.18,2.22,10.63,2.33.16,4-2.33,5.35-4.1,7.36,14.23,9.04,27.25-.24,40.97-2.16-1.74-4.5-3.98-7.4-2.8-4.45,1.8-5.83,8.24-.21,9.9l.05.49c-2.82,3.91-9.92,6.16-14.45,7.34-7.68,1.17-18.7.05-24.57-5.5.06-.18.12-.37.19-.55,3.66-4.03.05-10.44-5.22-9.94-1.87.18-2.49,1.13-3.72,2.8-10.11-13.75-9.8-28.54.02-42.15,6.06,6.1,14.57-1.41,8.19-8.34,5.95-4.17,10.57-5.62,17.8-6.18Z"/>
    <path class="st0" d="M308.14,375.76c52.35-4.33,98.28,34.65,102.53,87.01,4.25,52.36-34.8,98.23-87.16,102.4-52.25,4.16-98.01-34.78-102.25-87.03-4.24-52.25,34.64-98.06,86.88-102.38Z"/>
    <path class="st3" d="M309.42,389.22c44.96-3.59,84.3,29.97,87.84,74.93,3.54,44.96-30.07,84.27-75.04,87.75-44.89,3.48-84.11-30.06-87.65-74.95-3.53-44.89,29.96-84.15,74.84-87.74Z"/>
    <path class="st9" d="M312.87,406.67c35.36-1.67,65.37,25.63,67.04,60.99,1.67,35.36-25.65,65.37-61,67.03-35.35,1.66-65.35-25.64-67.02-60.99-1.67-35.35,25.63-65.36,60.98-67.03Z"/>
    <path class="st3" d="M289.29,447.63c9.06-14.1,34.15-15.99,47.06-7.04,1.24.86,4.82,3.57,5.08,4.92l-3.29.42c4.13.13,5.04-.03,6.83,3.93,6.25,9.09,8.07,17.11,6.19,28.21-.91,5.35-3.7,12.05-7.61,15.93-1.7,1.86-3.2,3.65-5.66,4.5l.25.34c-6.22,6.12-22.88,8.47-30.98,5.8-3.1-1.02-10.7-3.31-12.39-6.17l.53-.37c-2.74-.67-4.62-1.6-6.14-4.03l-.17.26-.7-.27c-10.36-12.41-11.19-34.16.47-45.89.17-.17.34-.35.51-.52Z"/>
    <path class="st1" d="M289.29,447.63c5.76-3.64,10.56.9,9.12,5.45-1.67,5.28-13.01,3.74-9.63-4.93.17-.17.34-.35.51-.52Z"/>
    <path class="st1" d="M344.98,449.85c-4.07,13.77-15.31.67-6.83-3.93,4.13.13,5.04-.03,6.83,3.93Z"/>
    <path class="st1" d="M289.17,494.05c2.65-12.38,16.85-2.23,6.14,4.03-2.74-.67-4.62-1.6-6.14-4.03Z"/>
    <path class="st5" d="M337.89,498.5c-10.94-4.69,1.78-17.3,5.66-4.5-1.7,1.86-3.2,3.65-5.66,4.5Z"/>
    <path class="st9" d="M476.89,504.93c19.12-.11,3.65,27.23,27.75,32.91,4.9,1.12,10.01.9,14.8-.63,19.53-6.41,15.35-26.35,24.16-31.35,2.28-1.29,5.35-1.38,7.8-.52,2.27.8,4.52,3.04,5.44,5.26,2.64,6.4-.09,14.6-2.46,20.67-11.21,25.89-42.39,36.85-66.76,21.97-9.81-6.03-16.84-15.7-19.53-26.9-2.15-9.15-2.72-19.15,8.8-21.42Z"/>
    <path class="st9" d="M170.93,245.65c17.47-1.94,33.2,10.66,35.12,28.13,1.92,17.47-10.69,33.19-28.17,35.09-17.45,1.9-33.13-10.69-35.05-28.14-1.92-17.44,10.66-33.15,28.1-35.08Z"/>
    <path class="st3" d="M172.68,260.52c9.07-1.03,17.27,5.45,18.37,14.51,1.1,9.06-5.32,17.31-14.37,18.47-9.14,1.17-17.5-5.33-18.6-14.48-1.11-9.15,5.45-17.46,14.61-18.5Z"/>
    <path class="st9" d="M169.61,711.92c17.27-2.96,33.68,8.63,36.66,25.9,2.98,17.27-8.59,33.69-25.85,36.7-17.3,3.01-33.76-8.58-36.75-25.89-2.99-17.3,8.63-33.75,25.94-36.72Z"/>
    <path class="st3" d="M173.66,726.42c9.2-.65,17.2,6.25,17.9,15.44.71,9.19-6.14,17.23-15.33,18-9.27.77-17.39-6.15-18.11-15.43-.71-9.27,6.26-17.35,15.53-18.01Z"/>
    <path class="st9" d="M842.86,712.29c17.14-3.18,33.6,8.15,36.76,25.29,3.16,17.14-8.19,33.59-25.34,36.73-17.12,3.13-33.53-8.2-36.68-25.31-3.15-17.11,8.15-33.54,25.26-36.71Z"/>
    <path class="st3" d="M846.54,726.51c9.31-1.16,17.81,5.43,18.99,14.74,1.18,9.31-5.4,17.82-14.7,19.02-9.33,1.2-17.87-5.4-19.05-14.73-1.19-9.33,5.43-17.86,14.77-19.02Z"/>
    <path class="st9" d="M844.91,246.07c17.35-2.05,33.04,10.43,34.95,27.8,1.91,17.36-10.7,32.95-28.07,34.73-17.18,1.75-32.57-10.68-34.45-27.85-1.89-17.17,10.42-32.65,27.58-34.67Z"/>
    <path class="st3" d="M847.33,260.81c9.01-.72,16.9,5.98,17.67,14.98s-5.88,16.94-14.88,17.75c-9.07.83-17.08-5.89-17.86-14.96-.77-9.08,5.99-17.05,15.07-17.77Z"/>
    <path class="st4" d="M320,661.51c8.09-.33,17.6-.13,25.77-.13h46.53s146.59.05,146.59.05l111.46-.07,33.43-.07c15.2-.07,26.73-1.62,40.47,6.33,7.2,4.11,13.12,10.14,17.09,17.42,4.16,7.75,8.76,25.45,11.56,34.5,6.27,20.49,12.31,41.06,18.1,61.7,3.36,11.76,6.81,23.08,9.96,34.94l-76.07-.06-459.43-.08c8.89-37.17,20.37-74.26,29.87-111.29,6.14-23.95,17.84-41.81,44.66-43.25Z"/>
    <path class="st5" d="M336.61,701.11c17.21-1.4,32.31,11.4,33.77,28.61,1.45,17.21-11.29,32.35-28.5,33.86-17.28,1.51-32.51-11.3-33.97-28.59-1.46-17.29,11.41-32.47,28.7-33.87Z"/>
    <path class="st3" d="M335.56,715.51c9.26-1.91,18.32,4.02,20.29,13.26,1.97,9.25-3.89,18.35-13.12,20.39-9.33,2.06-18.54-3.87-20.53-13.21-1.99-9.34,4-18.51,13.36-20.44Z"/>
    <path class="st5" d="M682.32,701.44c16.86-1.86,32.06,10.24,34.02,27.09,1.96,16.85-10.05,32.12-26.89,34.18-16.98,2.08-32.4-10.06-34.38-27.04-1.98-16.99,10.25-32.34,27.24-34.22Z"/>
    <path class="st3" d="M682.38,715.47c9.1-1.75,17.89,4.22,19.61,13.32,1.72,9.1-4.28,17.87-13.39,19.57-9.07,1.69-17.79-4.28-19.5-13.34-1.72-9.06,4.22-17.8,13.28-19.55Z"/>
  </g>
</svg>